<svg width="60" height="34" viewBox="0 0 60 34" fill="none" xmlns="http://www.w3.org/2000/svg">
<path d="M52.6734 13.265C53.3353 12.9611 53.8471 12.4121 54.1036 11.7154C54.4035 10.901 54.3082 10.014 53.8424 9.28195L49.1436 1.8982C48.6347 1.09852 47.765 0.621094 46.8171 0.621094H45.0304C44.7421 0.621094 44.4722 0.762539 44.3079 0.999375C44.1437 1.23621 44.1061 1.53867 44.2073 1.80855L45.1711 4.37859H43.1515C42.6661 4.37859 42.2726 4.77211 42.2726 5.2575C42.2726 5.74289 42.6661 6.13641 43.1515 6.13641H45.8303L46.0736 6.78527C46.1904 7.09676 46.1487 7.43226 45.9592 7.70578C45.7696 7.9793 45.47 8.13609 45.1373 8.13609H40.2728V8.07562C40.2728 5.51906 38.1928 3.43922 35.6364 3.43922H31.6968C29.798 3.43922 27.9357 4.09242 26.4531 5.27859L24.0554 7.19672H20.0818C19.4895 7.19672 18.9375 6.93141 18.5675 6.46898L16.7843 4.23996C15.8996 3.13406 14.58 2.49984 13.1638 2.49984H7.45465C7.07789 2.49984 6.74309 2.73996 6.62215 3.0968C6.50121 3.45363 6.62133 3.84773 6.92051 4.07672L23.4462 16.7216L21.0657 19.4194L18.2488 17.8489C17.8242 17.613 17.3332 17.5567 16.8662 17.6902C16.3992 17.8236 16.012 18.1309 15.7762 18.5556L14.8639 20.1982C14.628 20.6228 14.5717 21.1138 14.7052 21.5808C14.7518 21.7441 14.8209 21.8968 14.9075 22.0375C14.9875 22.3861 15.0304 22.7445 15.0304 23.1059C15.0304 25.7292 12.8961 27.8633 10.2729 27.8633C7.64965 27.8633 5.51543 25.7292 5.51543 23.1059C5.51543 20.4826 7.64953 18.3484 10.2729 18.3484C11.0259 18.3484 11.7458 18.519 12.4125 18.8554C12.8457 19.0739 13.3744 18.9 13.593 18.4665C13.8117 18.0332 13.6377 17.5046 13.2043 17.2859C12.2898 16.8245 11.3036 16.5905 10.2729 16.5905C6.68039 16.5905 3.75762 19.5132 3.75762 23.1057C3.75762 26.6982 6.68027 29.621 10.2729 29.621C13.7836 29.621 16.653 26.8295 16.782 23.3497L18.687 24.4179C18.052 28.5543 14.5104 31.6208 10.2728 31.6208C5.57766 31.6211 1.75781 27.8012 1.75781 23.106C1.75781 18.4109 5.57766 14.591 10.2728 14.591C11.927 14.591 13.5306 15.0655 14.9101 15.9633C15.3169 16.2279 15.8614 16.1128 16.1262 15.7059C16.3909 15.2991 16.2757 14.7546 15.8688 14.4899C14.2034 13.406 12.2681 12.8332 10.2728 12.8332C4.6084 12.8332 0 17.4417 0 23.106C0 28.7705 4.6084 33.3789 10.2728 33.3789C12.8336 33.3789 15.2866 32.4311 17.1802 30.71C18.7655 29.2691 19.8478 27.3877 20.3025 25.324L22.8654 26.7609C23.5151 27.9486 24.7429 28.682 26.1055 28.682H37.9157C38.9209 28.682 39.8354 28.287 40.5041 27.6323C42.2033 31.0931 45.7594 33.379 49.7273 33.379C55.3917 33.379 60.0001 28.7706 60.0001 23.1061C60 18.4652 56.9065 14.5345 52.6734 13.265ZM49.7272 22.1061C50.2786 22.1061 50.7271 22.5547 50.7271 23.106C50.7271 23.6573 50.2785 24.1059 49.7272 24.1059C49.176 24.1059 48.7274 23.6573 48.7274 23.106C48.7274 22.5547 49.1759 22.1061 49.7272 22.1061ZM27.5511 6.65133C28.7234 5.71359 30.1956 5.19715 31.6968 5.19715H35.6364C37.2237 5.19715 38.515 6.48855 38.515 8.07574V8.13621H32.1435C31.1714 8.13621 30.2395 8.4348 29.4486 8.99988L27.3036 10.5321L25.5783 8.22961L27.5511 6.65133ZM13.1638 4.25777C14.043 4.25777 14.8624 4.65152 15.4117 5.33812L17.1949 7.56715C17.9004 8.44887 18.9526 8.95465 20.0818 8.95465H23.9246L29.6705 16.6062C28.8251 16.6813 28.061 17.0419 27.475 17.5909L10.0495 4.25777H13.1638ZM30 18.3486C31.0693 18.3486 31.9392 19.2186 31.9392 20.288C31.9392 21.3573 31.0693 22.2272 30 22.2272C28.9307 22.2272 28.0608 21.3573 28.0608 20.288C28.0608 19.2186 28.9307 18.3486 30 18.3486ZM24.8457 17.7927L26.5111 19.067C26.3768 19.4495 26.303 19.8602 26.303 20.288C26.303 20.292 26.3032 20.2958 26.3033 20.2999L24.6812 21.4353L22.6371 20.2957L24.8457 17.7927ZM16.4006 21.0519L17.313 19.4092C17.316 19.4038 17.3252 19.3873 17.3493 19.3804C17.3734 19.3736 17.3898 19.3827 17.3941 19.385L23.0809 22.5554L22.645 22.8606C22.1945 23.1761 21.9271 23.672 21.8802 24.193L16.4243 21.1341C16.4189 21.131 16.4024 21.1219 16.3955 21.0978C16.3886 21.0738 16.3976 21.0574 16.4006 21.0519ZM37.9155 26.9242H26.1054C25.3661 26.9242 24.7015 26.5134 24.3708 25.8523L23.6334 24.3775C23.6201 24.3507 23.6285 24.3178 23.6528 24.3008L26.7843 22.1088C27.4205 23.228 28.623 23.9851 29.9999 23.9851C32.0385 23.9851 33.6969 22.3267 33.6969 20.2881C33.6969 19.41 33.3887 18.6029 32.8754 17.968L30.6116 14.947L32.4089 13.6632C32.4193 13.6559 32.4315 13.6519 32.4442 13.6519H41.2724C41.7578 13.6519 42.1513 13.2584 42.1513 12.773C42.1513 12.2875 41.7578 11.8941 41.2724 11.8941H32.4442C32.0631 11.8941 31.6977 12.0111 31.3873 12.2327L29.557 13.54L28.3576 11.9394L30.47 10.4306C30.9611 10.0799 31.5396 9.89437 32.1431 9.89437H45.1369C46.0411 9.89437 46.8885 9.45059 47.4035 8.7075C47.9186 7.96441 48.0364 7.0152 47.719 6.1684L46.2981 2.37926H46.8166C47.1604 2.37926 47.4757 2.55234 47.6602 2.84238L52.3589 10.226C52.5279 10.4914 52.5623 10.813 52.4537 11.1083C52.3451 11.4036 52.1102 11.6259 51.8094 11.7185L46.4548 13.3662C43.4004 14.306 41.1128 16.9541 40.6269 20.1127L39.8319 25.28C39.6857 26.2325 38.8795 26.9242 37.9155 26.9242ZM49.7272 31.6211C45.9599 31.6211 42.6407 29.1359 41.5692 25.5489C41.5693 25.5483 41.5695 25.5476 41.5696 25.547L42.3646 20.3795C42.6953 18.2299 44.082 16.3802 46.0017 15.4329L46.6948 17.3387C44.5624 18.4587 43.2118 20.6661 43.2118 23.106C43.2118 26.6985 46.1346 29.6212 49.7271 29.6212C53.3196 29.6212 56.2424 26.6985 56.2424 23.106C56.2424 20.6755 54.9045 18.4637 52.7507 17.3336C52.3208 17.108 51.7895 17.2736 51.564 17.7034C51.3384 18.1332 51.504 18.6645 51.9339 18.89C53.5072 19.7155 54.4846 21.3311 54.4846 23.106C54.4846 25.7293 52.3505 27.8634 49.7271 27.8634C47.1038 27.8634 44.9696 25.7293 44.9696 23.106C44.9696 21.4058 45.8678 19.8602 47.303 19.0116L48.0084 20.9517C47.3757 21.4575 46.9693 22.2349 46.9693 23.106C46.9693 24.6266 48.2065 25.8637 49.727 25.8637C51.2475 25.8637 52.4846 24.6266 52.4846 23.106C52.4846 21.5854 51.2475 20.3483 49.727 20.3483C49.7045 20.3483 49.6823 20.3495 49.66 20.3501L47.6583 14.8452C48.3315 14.6771 49.0248 14.591 49.727 14.591C54.4221 14.591 58.242 18.4109 58.242 23.106C58.2422 27.8012 54.4223 31.6211 49.7272 31.6211Z" fill="#4A101D"/>
<path d="M10.2728 20.3483C8.75217 20.3483 7.51514 21.5854 7.51514 23.1059C7.51514 24.6265 8.75229 25.8637 10.2728 25.8637C11.7933 25.8637 13.0304 24.6265 13.0304 23.1059C13.0304 21.5854 11.7934 20.3483 10.2728 20.3483ZM10.2728 24.1059C9.72143 24.1059 9.27295 23.6573 9.27295 23.1059C9.27295 22.5547 9.72154 22.1061 10.2728 22.1061C10.824 22.1061 11.2726 22.5547 11.2726 23.1059C11.2726 23.6574 10.8242 24.1059 10.2728 24.1059Z" fill="#4A101D"/>
</svg>
