<svg width="30" height="30" viewBox="0 0 30 30" fill="none" xmlns="http://www.w3.org/2000/svg">
<g clip-path="url(#clip0_1_274)">
<path d="M7.36014 28.2682H9.96083C11.4684 28.2682 11.4707 25.9193 9.96083 25.9193H7.36014C5.85258 25.9193 5.85036 28.2682 7.36014 28.2682ZM7.36014 26.7982H9.96083C10.3429 26.7982 10.3429 27.3893 9.96083 27.3893H7.36014C6.97817 27.3893 6.97817 26.7982 7.36014 26.7982Z" fill="white"/>
<path d="M10.5876 15.1049L7.72476 17.9678L6.7333 16.9762C6.3314 16.5746 5.71001 17.1959 6.11179 17.5977L7.41404 18.9C7.62122 19.0716 7.82841 19.0716 8.03554 18.9L11.2092 15.7264C11.6109 15.3245 10.9895 14.7033 10.5876 15.1049Z" fill="white"/>
<path d="M29.6735 19.4412C29.4961 19.1025 29.3676 18.7315 29.2803 18.3591C28.8517 16.5665 28.2006 14.8298 27.3453 13.1971L25.9152 10.4675C25.1057 8.92213 22.7165 9.17906 22.2655 10.874C21.1956 10.4891 19.9879 11.1217 19.6953 12.2205C18.8108 11.9022 17.7895 12.2771 17.3206 13.0905V3.4408V1.71697C17.3205 0.770273 16.5503 0 15.6035 0H5.36597C4.79779 0 4.79779 0.878906 5.36597 0.878906H15.6035C16.0656 0.878906 16.4416 1.25484 16.4416 1.71697V3.00135H0.879272V1.71697C0.879272 1.25484 1.25521 0.878906 1.71734 0.878906H2.90509C3.47328 0.878906 3.47328 0 2.90509 0H1.71734C0.77064 0 0.000366211 0.770273 0.000366211 1.71697V3.4408V24.6216V28.283C0.000366211 29.2297 0.77064 30 1.71734 30H15.6035C16.5502 30 17.3205 29.2297 17.3205 28.283V24.6216V22.8613L18.8909 23.6381C19.2789 23.83 19.5979 24.1496 19.789 24.5381C20.4866 25.9557 22.2747 26.5435 23.6792 25.8076L26.2974 24.4359C26.8007 24.1723 26.3929 23.3938 25.8895 23.6574L23.2713 25.0291C22.2987 25.5388 21.0624 25.1351 20.5776 24.15C20.3016 23.5891 19.841 23.1275 19.2805 22.8502L12.6165 19.554C11.3649 18.9461 12.27 16.9825 13.5411 17.5754L15.9608 18.8491C16.3341 19.0457 16.7506 18.6301 16.5548 18.2564L12.3513 10.233C11.6611 8.93543 13.5096 7.73766 14.2146 9.08367L17.1858 14.7548L17.9619 16.2362C18.218 16.7254 19.0034 16.3304 18.7404 15.8283L17.9848 14.3862C17.6789 13.3666 18.9376 12.5445 19.7478 13.2553L20.5886 14.8601C20.8447 15.3493 21.6301 14.9542 21.3671 14.4522L20.5122 12.8205C20.4322 11.883 21.5802 11.2798 22.3059 11.8981L23.1521 13.5134C23.4083 14.0026 24.1936 13.6076 23.9306 13.1055L23.0843 11.49C22.9691 10.3395 24.5884 9.82875 25.1366 10.8753L26.5667 13.6049C27.3883 15.1732 28.0136 16.8415 28.4254 18.5633C28.5253 19.0099 28.6825 19.4434 28.8949 19.8489C29.4013 20.8154 29.0269 22.0136 28.0605 22.5199C27.5572 22.7837 27.9652 23.5622 28.4684 23.2985C29.8641 22.5673 30.4048 20.8369 29.6735 19.4412ZM16.4416 28.283C16.4416 28.7452 16.0656 29.1211 15.6035 29.1211H1.71734C1.25521 29.1211 0.879272 28.7452 0.879272 28.283V25.061H16.4416V28.283ZM11.2997 17.7185C11.0014 18.3456 11.0594 19.0966 11.4481 19.6717C10.7213 20.4322 9.72429 20.8632 8.6604 20.8632C6.53158 20.8632 4.79966 19.1313 4.79966 17.0024C4.79966 14.8736 6.53158 13.1417 8.6604 13.1417C10.6803 13.1417 12.3418 14.7012 12.5066 16.6793C11.9861 16.8381 11.5337 17.2266 11.2997 17.7185ZM14.4905 8.06039C14.2989 7.90482 14.0778 7.78518 13.8351 7.70936C12.4275 7.26949 11.0098 8.56031 11.3196 10.0018H2.97681C2.89601 10.0018 2.83033 9.93615 2.83033 9.85535V6.71484C2.83033 6.63404 2.89601 6.56836 2.97681 6.56836H14.344C14.4248 6.56836 14.4905 6.63404 14.4905 6.71484V8.06039ZM16.4416 11.4405L15.3694 9.39404V6.71484C15.3694 6.14947 14.9094 5.68945 14.344 5.68945H2.97681C2.41144 5.68945 1.95142 6.14947 1.95142 6.71484V9.85541C1.95142 10.4208 2.41144 10.8808 2.97681 10.8808H11.6984L15.1212 17.4141L13.942 16.7933C13.9368 16.7905 13.9314 16.7878 13.9261 16.7853C13.7515 16.7022 13.5689 16.6462 13.3831 16.617C13.1861 14.1833 11.144 12.2628 8.66046 12.2628C6.04701 12.2628 3.92082 14.389 3.92082 17.0024C3.92082 19.6159 6.04701 21.7421 8.66046 21.7421C9.97121 21.7421 11.2003 21.2106 12.0931 20.2708C13.4873 21.0742 14.9991 21.7131 16.4416 22.4266V24.1821H0.879272V3.88025H16.4416V11.4405Z" fill="white"/>
</g>
<defs>
<clipPath id="clip0_1_274">
<rect width="30" height="30" fill="white"/>
</clipPath>
</defs>
</svg>
