<svg width="30" height="30" viewBox="0 0 30 30" fill="none" xmlns="http://www.w3.org/2000/svg">
<path d="M28.3598 12.525L26.6011 11.1178C26.5941 11.1122 26.587 11.1052 26.58 11.0995L28.2173 10.7719C28.4362 10.7283 28.5938 10.5361 28.5938 10.3125V8.90625C28.5938 8.6475 28.3838 8.4375 28.125 8.4375H25.7812C25.5225 8.4375 25.3125 8.6475 25.3125 8.90625V9.7275C25.3017 9.71297 25.2909 9.69844 25.2802 9.68391C25.2506 9.60234 25.1981 9.53578 25.1316 9.48281C24.8677 9.10922 24.6417 8.73516 24.4945 8.41172L23.7023 6.66937C23.1975 5.55797 21.8456 4.6875 20.625 4.6875H9.375C8.15438 4.6875 6.8025 5.55797 6.29766 6.66937L5.50594 8.41125C5.35875 8.73469 5.13281 9.10922 4.86891 9.48281C4.80234 9.53578 4.75031 9.60234 4.72031 9.68391C4.70953 9.69844 4.69922 9.7125 4.68797 9.7275V8.90625C4.68797 8.6475 4.47797 8.4375 4.21922 8.4375H1.875C1.61625 8.4375 1.40625 8.6475 1.40625 8.90625V10.3125C1.40625 10.5361 1.56375 10.7283 1.78312 10.7719L3.42047 11.0995C3.41344 11.1052 3.40641 11.1122 3.39937 11.1178L1.64016 12.525C0.720469 13.2609 0 14.76 0 15.9375V23.9062C0 24.6816 0.630937 25.3125 1.40625 25.3125H5.15625C5.93156 25.3125 6.5625 24.6816 6.5625 23.9062V22.9688H23.4375V23.9062C23.4375 24.6816 24.0684 25.3125 24.8438 25.3125H28.5938C29.3691 25.3125 30 24.6816 30 23.9062V15.9375C30 14.76 29.2795 13.2609 28.3598 12.525ZM24.1003 22.0312L23.0255 20.9564C22.5694 20.5003 21.7388 20.1562 21.0938 20.1562H8.67188C8.02687 20.1562 7.19625 20.5003 6.74016 20.9564L5.66531 22.0312H2.34375C1.56844 22.0312 0.9375 21.4003 0.9375 20.625V18.2812H1.40625V18.75C1.40625 19.7841 2.24719 20.625 3.28125 20.625H4.6875C4.94625 20.625 5.15625 20.415 5.15625 20.1562C5.15625 19.8975 4.94625 19.6875 4.6875 19.6875H3.28125C2.76422 19.6875 2.34375 19.267 2.34375 18.75V18.2812H3.28125C3.67031 18.2812 4.275 18.5316 4.55016 18.8067C4.64156 18.8981 4.76156 18.9441 4.88156 18.9441C5.00156 18.9441 5.12156 18.8981 5.21297 18.8067C5.39625 18.6234 5.39625 18.3272 5.21297 18.1439C4.75688 17.6878 3.92672 17.3438 3.28125 17.3438H0.9375V15.9375C0.9375 15.772 0.96375 15.5934 1.00078 15.4111C1.30078 15.7242 1.73719 15.9375 2.34375 15.9375H6.09375C6.21797 15.9375 6.33703 15.8883 6.42516 15.8002L7.03125 15.1941L7.63734 15.8002C7.725 15.8883 7.84453 15.9375 7.96875 15.9375H13.3997L14.6686 17.2064C14.76 17.2978 14.88 17.3438 15 17.3438C15.12 17.3438 15.24 17.2978 15.3314 17.2064L16.6003 15.9375H22.0312C22.1555 15.9375 22.275 15.8883 22.3627 15.8002L22.9688 15.1941L23.5748 15.8002C23.6625 15.8883 23.782 15.9375 23.9062 15.9375H27.6562C28.2628 15.9375 28.6992 15.7242 28.9992 15.4111C29.0363 15.5934 29.0625 15.772 29.0625 15.9375V17.3438H26.7188C26.0737 17.3438 25.2431 17.6878 24.787 18.1439C24.6038 18.3272 24.6038 18.6234 24.787 18.8067C24.8784 18.8981 24.9984 18.9441 25.1184 18.9441C25.2384 18.9441 25.3584 18.8981 25.4498 18.8067C25.725 18.5316 26.3297 18.2812 26.7188 18.2812H27.6562V18.75C27.6562 19.267 27.2358 19.6875 26.7188 19.6875H25.3125C25.0537 19.6875 24.8438 19.8975 24.8438 20.1562C24.8438 20.415 25.0537 20.625 25.3125 20.625H26.7188C27.7528 20.625 28.5938 19.7841 28.5938 18.75V18.2812H29.0625V20.625C29.0625 21.4003 28.4316 22.0312 27.6562 22.0312H24.1003ZM22.7747 22.0312H6.99094L7.40297 21.6192C7.67812 21.3441 8.28281 21.0938 8.67188 21.0938H21.0938C21.4828 21.0938 22.0875 21.3441 22.3627 21.6192L22.7747 22.0312ZM5.41875 10.3125H24.5812C25.0355 10.913 25.5544 11.4811 26.0152 11.85L26.5791 12.3009L23.2636 13.627C23.2631 13.627 23.2631 13.6275 23.2627 13.6275C23.2059 13.6505 23.1525 13.6847 23.1066 13.7306L22.6378 14.1994L21.8372 15H16.4062C16.282 15 16.1625 15.0492 16.0748 15.1373L15 16.2122L13.9252 15.1373C13.8375 15.0492 13.718 15 13.5938 15H8.16281L7.36266 14.1998L6.89391 13.7311C6.84797 13.6852 6.79453 13.6509 6.73781 13.628C6.73734 13.628 6.73734 13.6275 6.73688 13.6275L3.42141 12.3014L3.98531 11.8505C4.44562 11.4811 4.96453 10.913 5.41875 10.3125ZM28.5661 14.2589C28.4719 14.7488 28.1681 15 27.6562 15H24.1003L23.6316 14.5312L23.7009 14.4619L27.4205 12.9741L27.7739 13.2572C28.0711 13.4948 28.3453 13.8562 28.5661 14.2589ZM26.25 9.375H27.6562V9.92813L26.25 10.2094V9.375ZM6.35859 8.79937L7.15031 7.0575C7.50375 6.28078 8.52234 5.625 9.375 5.625H20.625C21.4777 5.625 22.4963 6.28078 22.8492 7.05703L23.6414 8.79937C23.7239 8.98031 23.8312 9.17578 23.9489 9.375H6.05109C6.16875 9.17578 6.27656 8.98031 6.35859 8.79937ZM2.34375 9.375H3.75V10.2094L2.34375 9.92813V9.375ZM2.22563 13.2572L2.57906 12.9741L6.29906 14.4619L6.36844 14.5312L5.89969 15H2.34375C1.83187 15 1.52813 14.7488 1.43391 14.2589C1.65469 13.8562 1.92844 13.4948 2.22563 13.2572ZM5.15625 24.375H1.40625C1.14797 24.375 0.9375 24.1645 0.9375 23.9062V22.4883C1.33031 22.7855 1.81406 22.9688 2.34375 22.9688H5.625V23.9062C5.625 24.1645 5.41453 24.375 5.15625 24.375ZM28.5938 24.375H24.8438C24.5855 24.375 24.375 24.1645 24.375 23.9062V22.9688H27.6562C28.1859 22.9688 28.6697 22.7855 29.0625 22.4883V23.9062C29.0625 24.1645 28.852 24.375 28.5938 24.375Z" fill="white"/>
</svg>
