<svg width="30" height="30" viewBox="0 0 30 30" fill="none" xmlns="http://www.w3.org/2000/svg">
<g clip-path="url(#clip0_1_287)">
<path d="M23.6875 18.4811C23.0987 17.2536 20.9925 15.5498 18.9575 13.9035C17.8225 12.986 16.75 12.1185 16.0663 11.4348C15.895 11.2623 15.6388 11.2073 15.4125 11.2886C14.9913 11.4411 14.7313 11.5586 14.5263 11.6498C14.2138 11.7898 14.1088 11.8373 13.6875 11.8798C13.5013 11.8985 13.3338 11.9985 13.23 12.1535C12.3463 13.4747 11.4313 13.3622 10.82 13.1573C10.625 13.0923 10.59 13.0085 10.5713 12.9285C10.44 12.3798 11.0988 11.1023 11.9525 10.2485C13.9838 8.21601 15.0313 7.70724 17.2438 8.69601C19.7537 9.81849 22.2687 10.6973 22.2938 10.706C22.6225 10.8197 22.9763 10.6472 23.09 10.321C23.2025 9.99474 23.0312 9.63849 22.705 9.52476C22.68 9.51603 20.215 8.65476 17.755 7.55349C14.8888 6.27222 13.3162 7.11597 11.07 9.36351C10.215 10.2185 9.05369 11.9485 9.35369 13.2173C9.48242 13.7573 9.86246 14.1573 10.4274 14.3435C11.8437 14.811 13.1362 14.3635 14.0987 13.086C14.4962 13.0248 14.7124 12.9348 15.0374 12.7886C15.1549 12.7361 15.2924 12.6748 15.4749 12.6011C16.1899 13.2723 17.1549 14.0535 18.1712 14.8748C20.0087 16.361 22.0924 18.0461 22.5612 19.0211C22.7925 19.5023 22.5437 19.8161 22.3749 19.9598C22.1274 20.1723 21.7887 20.2398 21.6049 20.111C21.4024 19.9723 21.1387 19.9635 20.9299 20.0885C20.7199 20.2135 20.6025 20.4497 20.6287 20.6923C20.6712 21.0898 20.3074 21.3173 20.1499 21.396C19.7499 21.5985 19.3324 21.5635 19.1762 21.4185C19.0012 21.2561 18.7499 21.2085 18.5274 21.291C18.3049 21.3748 18.1499 21.5798 18.1274 21.8173C18.0899 22.2272 17.7862 22.621 17.3899 22.7747C17.1986 22.8472 16.9211 22.891 16.6724 22.6635C16.5174 22.5235 16.3024 22.4697 16.1012 22.5185C15.8974 22.5684 15.7337 22.716 15.6624 22.9122C15.6387 22.9747 15.5849 23.1247 14.9999 23.1247C14.5837 23.1247 13.8349 22.8435 13.4687 22.601C13.0299 22.3122 10.2787 20.2597 7.90244 18.2697C7.56869 17.9885 6.99119 17.3859 6.48119 16.8534C6.02867 16.3809 5.61494 15.9522 5.40242 15.7722C5.13617 15.5472 4.74242 15.581 4.52117 15.846C4.29869 16.1097 4.33115 16.5047 4.59494 16.7272C4.78871 16.891 5.16371 17.2872 5.57744 17.7185C6.13496 18.3009 6.71117 18.9035 7.09871 19.2285C9.42623 21.1772 12.2237 23.281 12.7812 23.6472C13.2412 23.9497 14.2324 24.3747 15 24.3747C15.6162 24.3747 16.09 24.2334 16.4187 23.9572C16.8587 24.1285 17.3587 24.1297 17.8399 23.9422C18.4087 23.7222 18.8762 23.2785 19.1412 22.741C19.6337 22.846 20.1975 22.7722 20.7099 22.5148C21.2112 22.2623 21.5737 21.876 21.7537 21.4247C22.2512 21.451 22.7636 21.2747 23.1874 20.911C23.905 20.2973 24.1024 19.3423 23.6875 18.4811Z" fill="white"/>
<path d="M12.5 8.12476H6.87502C6.53002 8.12476 6.25 8.40478 6.25 8.74978C6.25 9.09478 6.53002 9.37479 6.87502 9.37479H12.5C12.845 9.37479 13.125 9.09478 13.125 8.74978C13.125 8.40478 12.845 8.12476 12.5 8.12476Z" fill="white"/>
<path d="M25.5187 17.151C25.325 16.8648 24.9375 16.786 24.6512 16.981L22.8238 18.2085C22.5375 18.401 22.4612 18.7898 22.6538 19.076C22.775 19.2548 22.9725 19.3523 23.1738 19.3523C23.2926 19.3523 23.4138 19.3185 23.5213 19.246L25.3488 18.0186C25.635 17.826 25.7112 17.4373 25.5187 17.151Z" fill="white"/>
<path d="M21.6387 20.1336C21.1912 19.7811 19.1899 17.7324 17.9524 16.4424C17.7137 16.1923 17.3174 16.1836 17.0687 16.4236C16.8186 16.6624 16.8111 17.0586 17.0499 17.3074C17.3712 17.6424 20.2049 20.5961 20.8637 21.1162C20.9774 21.2062 21.1149 21.2499 21.2499 21.2499C21.4337 21.2499 21.6174 21.1674 21.7424 21.0112C21.9562 20.7411 21.91 20.3473 21.6387 20.1336Z" fill="white"/>
<path d="M19.1412 21.3873C18.3924 20.7885 16.5112 18.7898 16.0862 18.3273C15.8511 18.0723 15.4574 18.0573 15.2024 18.2898C14.9486 18.5235 14.9312 18.9198 15.1649 19.1735C15.1874 19.1973 17.4324 21.6211 18.3599 22.3636C18.4749 22.4548 18.6137 22.4998 18.7499 22.4998C18.9324 22.4998 19.1149 22.4185 19.2386 22.2661C19.4537 21.996 19.4099 21.6023 19.1412 21.3873Z" fill="white"/>
<path d="M16.6538 22.6461C15.7625 21.8948 13.9388 19.9536 13.5825 19.5723C13.3463 19.3198 12.95 19.306 12.6988 19.5423C12.4463 19.7785 12.4338 20.1735 12.6688 20.4261C13.1813 20.9748 14.9263 22.8248 15.8475 23.6023C15.965 23.701 16.1075 23.7498 16.25 23.7498C16.4275 23.7498 16.605 23.6736 16.7288 23.5273C16.9513 23.2623 16.9175 22.8685 16.6538 22.6461Z" fill="white"/>
<path d="M7.305 7.04605C6.23373 6.03103 1.95 5.70226 0.66252 5.62603C0.485039 5.6173 0.32127 5.67601 0.196289 5.79478C0.07125 5.91226 0 6.07726 0 6.24976V17.4998C0 17.8448 0.280019 18.1248 0.625019 18.1248H4.37502C4.64502 18.1248 4.88502 17.9511 4.96875 17.6935C5.05998 17.4135 7.21377 10.8036 7.49748 7.55353C7.51377 7.36351 7.44375 7.17601 7.305 7.04605ZM3.91875 16.8748H1.24998V6.91978C3.25875 7.07851 5.42625 7.42351 6.21375 7.80601C5.88252 10.5435 4.38375 15.4073 3.91875 16.8748Z" fill="white"/>
<path d="M29.375 6.87482C24.4674 6.87482 21.7449 8.13107 21.6312 8.18357C21.4687 8.2598 21.3474 8.40107 21.2974 8.57234C21.2475 8.74361 21.2724 8.92736 21.3662 9.07982C22.1387 10.3236 24.5574 17.2311 25.0224 18.9161C25.0974 19.1873 25.3437 19.3748 25.625 19.3748H29.375C29.72 19.3748 30 19.0948 30 18.7498V7.49978C30 7.15355 29.72 6.87482 29.375 6.87482ZM28.75 18.1248H26.0925C25.5 16.1948 23.75 11.1623 22.7737 9.08234C23.7275 8.75861 25.7762 8.20232 28.75 8.13236V18.1248Z" fill="white"/>
</g>
<defs>
<clipPath id="clip0_1_287">
<rect width="30" height="30" fill="white"/>
</clipPath>
</defs>
</svg>
