<svg width="30" height="30" viewBox="0 0 30 30" fill="none" xmlns="http://www.w3.org/2000/svg">
<path d="M5.25 19.5C4.00736 19.5 3 20.5074 3 21.75C3 22.9926 4.00736 24 5.25 24C6.49264 24 7.5 22.9926 7.5 21.75C7.49725 20.5085 6.4915 19.5027 5.25 19.5ZM5.25 23C4.55964 23 4 22.4404 4 21.75C4 21.0596 4.55964 20.5 5.25 20.5C5.94036 20.5 6.5 21.0596 6.5 21.75C6.5 22.4404 5.94036 23 5.25 23Z" fill="white"/>
<path d="M24.75 19.5C23.5074 19.5 22.5 20.5074 22.5 21.75C22.5 22.9926 23.5074 24 24.75 24C25.9926 24 27 22.9926 27 21.75C26.9973 20.5085 25.9915 19.5027 24.75 19.5ZM24.75 23C24.0596 23 23.5 22.4404 23.5 21.75C23.5 21.0596 24.0596 20.5 24.75 20.5C25.4404 20.5 26 21.0596 26 21.75C26 22.4404 25.4404 23 24.75 23Z" fill="white"/>
<path d="M28 15H25.75C24.915 12.13 24.975 12.305 24.9 12.2C24.4 11.52 23.29 11.05 22 10.725V9H26C26.8284 9 27.5 8.32843 27.5 7.5V1.5C27.5 0.671573 26.8284 0 26 0H4C3.17157 0 2.5 0.671573 2.5 1.5V7.5C2.5 8.32843 3.17157 9 4 9H8V10.725C6.71 11.05 5.61 11.52 5.1 12.2C5.025 12.305 5.1 12.13 4.25 15H2C0.895431 15 0 15.8954 0 17C0.0047884 17.8926 0.600516 18.674 1.46 18.915C1.1615 19.3899 1.00213 19.9391 1 20.5V23C1.00356 24.2683 1.80427 25.3973 3 25.82V28.5C3 29.3284 3.67157 30 4.5 30H7.5C8.32843 30 9 29.3284 9 28.5V26H21V28.5C21 29.3284 21.6716 30 22.5 30H25.5C26.3284 30 27 29.3284 27 28.5V25.82C28.1957 25.3973 28.9964 24.2683 29 23V20.5C28.9979 19.9391 28.8385 19.3899 28.54 18.915C28.8696 18.8258 29.1708 18.6536 29.415 18.415C29.9877 17.843 30.1591 16.9822 29.8492 16.2344C29.5394 15.4867 28.8094 14.9994 28 15ZM21 10.5C20.67 10.435 20.335 10.38 20 10.335V9H21V10.5ZM19 9V10.22C16.3412 9.92996 13.6588 9.92996 11 10.22V9H19ZM3.5 7.5V1.5C3.5 1.22386 3.72386 1 4 1H26C26.2761 1 26.5 1.22386 26.5 1.5V7.5C26.5 7.77614 26.2761 8 26 8H4C3.72386 8 3.5 7.77614 3.5 7.5ZM9 9H10V10.345C9.665 10.39 9.33 10.445 9 10.51V9ZM5.95 12.735C7.05 11.5 12.055 11 15 11C17.945 11 22.95 11.475 24.05 12.735C25.05 16.235 24.78 15.19 25.33 17.37C18.4918 16.215 11.5082 16.215 4.67 17.37C5.215 15.2 4.915 16.295 5.95 12.735ZM1 17C1 16.4477 1.44772 16 2 16H4L3.62 17.5C3.16387 17.5669 2.72929 17.738 2.35 18H2C1.44772 18 1 17.5523 1 17ZM8 28.5C8 28.7761 7.77614 29 7.5 29H4.5C4.22386 29 4 28.7761 4 28.5V26H8V28.5ZM26 28.5C26 28.7761 25.7761 29 25.5 29H22.5C22.2239 29 22 28.7761 22 28.5V26H26V28.5ZM28 23C28 24.1046 27.1046 25 26 25C2.38 25 3.88 25 3.605 24.96C2.67168 24.772 2.00029 23.9521 2 23V20.5C2 19.3954 2.89543 18.5 4 18.5H4.055C4.06989 18.5025 4.08511 18.5025 4.1 18.5C7.69723 17.8495 11.3445 17.5149 15 17.5C18.6888 17.5127 22.3694 17.8473 26 18.5C27.1046 18.5 28 19.3954 28 20.5V23ZM28.705 17.705C28.5183 17.8928 28.2648 17.9989 28 18H27.65C27.2751 17.7401 26.8459 17.5691 26.395 17.5L26 16H28C28.4032 16.0017 28.7659 16.2453 28.9199 16.6179C29.074 16.9904 28.9892 17.4191 28.705 17.705Z" fill="white"/>
<path d="M19 19.5H11C10.1716 19.5 9.5 20.1716 9.5 21V22.5C9.5 23.3284 10.1716 24 11 24H19C19.8284 24 20.5 23.3284 20.5 22.5V21C20.5 20.1716 19.8284 19.5 19 19.5ZM19.5 22.5C19.5 22.7761 19.2761 23 19 23H11C10.7239 23 10.5 22.7761 10.5 22.5V21C10.5 20.7239 10.7239 20.5 11 20.5H19C19.2761 20.5 19.5 20.7239 19.5 21V22.5Z" fill="white"/>
<path d="M10.5 5.75C10.5 4.75 9.5 4 8.25 4C7.5 4 7 3.605 7 3.25C7 2.895 7.5 2.5 8.25 2.5C9 2.5 9.5 2.895 9.5 3.25C9.5 3.52614 9.72386 3.75 10 3.75C11 3.75 10.5 1.5 8.25 1.5C7 1.5 6 2.27 6 3.25C6 4.23 7 5 8.25 5C8.985 5 9.5 5.395 9.5 5.75C9.5 6.105 9 6.5 8.25 6.5C7.5 6.5 7 6.105 7 5.75C7 5.47386 6.77614 5.25 6.5 5.25C5.5 5.25 6 7.5 8.25 7.5C9.5 7.5 10.5 6.73 10.5 5.75Z" fill="white"/>
<path d="M11.315 7.465C11.4383 7.51419 11.5761 7.51232 11.698 7.45979C11.82 7.40727 11.916 7.3084 11.965 7.185L12.44 6H14.56L15.035 7.185C15.1011 7.35113 15.2508 7.46938 15.4277 7.4952C15.6046 7.52103 15.7819 7.45051 15.8927 7.3102C16.0035 7.1699 16.0311 6.98113 15.965 6.815L13.965 1.815C13.8896 1.62416 13.7052 1.49878 13.5 1.49878C13.2948 1.49878 13.1104 1.62416 13.035 1.815L11.035 6.815C10.9858 6.93832 10.9877 7.07613 11.0402 7.19806C11.0927 7.32 11.1916 7.41603 11.315 7.465ZM13.5 3.345L14.16 5H12.84L13.5 3.345Z" fill="white"/>
<path d="M17 7.5H19.5C19.7761 7.5 20 7.27614 20 7C20 6.72386 19.7761 6.5 19.5 6.5H17.5V2C17.5 1.72386 17.2761 1.5 17 1.5C16.7239 1.5 16.5 1.72386 16.5 2V7C16.5 7.27614 16.7239 7.5 17 7.5Z" fill="white"/>
<path d="M21 7.5H23.5C23.7761 7.5 24 7.27614 24 7C24 6.72386 23.7761 6.5 23.5 6.5H21.5V5H23C23.2761 5 23.5 4.77614 23.5 4.5C23.5 4.22386 23.2761 4 23 4H21.5V2.5H23.5C23.7761 2.5 24 2.27614 24 2C24 1.72386 23.7761 1.5 23.5 1.5H21C20.7239 1.5 20.5 1.72386 20.5 2V7C20.5 7.27614 20.7239 7.5 21 7.5Z" fill="white"/>
</svg>
